<?xml version="1.0" encoding="UTF-8"?><svg id="Layer_1" xmlns="http://www.w3.org/2000/svg" viewBox="0 0 535.02 513"><defs><style>.cls-1{fill:#f2ee81;stroke:#f2ee81;stroke-miterlimit:10;}</style></defs><path class="cls-1" d="M389.28,507.47l-89.8-55.6c-19.41-12.02-43.95-11.99-63.32,.08l-89.67,55.82c-29.5,15.56-64.04-9.47-58.44-42.35l25.85-101.43c5.69-22.33-1.9-45.94-19.54-60.77L12.73,234.59c-23.91-23.25-10.78-63.83,22.22-68.67l104.93-6.12c23.35-1.36,43.78-16.16,52.35-37.92L231.2,22.98c14.72-29.93,57.37-29.98,72.17-.09l39.22,98.82c8.63,21.74,29.09,36.48,52.44,37.79l104.94,5.87c33.01,4.76,46.24,45.3,22.39,68.61l-81.45,68.82c-17.6,14.87-25.13,38.5-19.39,60.81l26.09,101.37c5.68,32.87-28.8,57.98-58.34,42.49Z"/></svg>