<?xml version="1.0" encoding="UTF-8"?><svg id="Layer_1" xmlns="http://www.w3.org/2000/svg" viewBox="0 0 1012 432.96"><defs><style>.cls-1{fill:#fff;}.cls-2{fill:#231f20;}.cls-3{fill:none;stroke:#231f20;stroke-miterlimit:10;}</style></defs><rect class="cls-1" width="1012" height="432.96"/><rect class="cls-3" x="158.48" y="50.72" width="800" height="48" rx="8.01" ry="8.01"/><g><path class="cls-2" d="M52.46,81.18c.73,.48,2.02,.98,3.25,.98,1.79,0,2.63-.9,2.63-2.02,0-1.18-.7-1.82-2.52-2.49-2.44-.87-3.58-2.21-3.58-3.84,0-2.18,1.76-3.98,4.68-3.98,1.37,0,2.58,.39,3.33,.84l-.62,1.79c-.53-.34-1.51-.78-2.77-.78-1.46,0-2.27,.84-2.27,1.85,0,1.12,.81,1.62,2.58,2.3,2.35,.9,3.56,2.07,3.56,4.09,0,2.38-1.85,4.06-5.07,4.06-1.48,0-2.86-.36-3.81-.92l.62-1.88Z"/><path class="cls-2" d="M66.86,66.25v3.89h3.53v1.88h-3.53v7.31c0,1.68,.48,2.63,1.85,2.63,.64,0,1.12-.08,1.43-.17l.11,1.85c-.48,.2-1.23,.34-2.18,.34-1.15,0-2.07-.36-2.66-1.04-.7-.73-.95-1.93-.95-3.53v-7.39h-2.1v-1.88h2.1v-3.25l2.41-.64Z"/><path class="cls-2" d="M74.36,77.37c.06,3.33,2.18,4.7,4.65,4.7,1.76,0,2.83-.31,3.75-.7l.42,1.76c-.87,.39-2.35,.84-4.51,.84-4.17,0-6.66-2.74-6.66-6.83s2.41-7.31,6.36-7.31c4.42,0,5.6,3.89,5.6,6.38,0,.5-.06,.9-.08,1.15h-9.52Zm7.22-1.76c.03-1.57-.64-4-3.42-4-2.49,0-3.58,2.3-3.78,4h7.2Z"/><path class="cls-2" d="M87.02,74.57c0-1.74-.06-3.14-.11-4.42h2.21l.11,2.32h.06c1.01-1.65,2.6-2.63,4.82-2.63,3.28,0,5.74,2.77,5.74,6.89,0,4.87-2.97,7.28-6.16,7.28-1.79,0-3.36-.78-4.17-2.13h-.06v7.36h-2.44v-14.67Zm2.44,3.61c0,.36,.06,.7,.11,1.01,.45,1.71,1.93,2.88,3.7,2.88,2.6,0,4.12-2.13,4.12-5.24,0-2.72-1.43-5.04-4.03-5.04-1.68,0-3.25,1.2-3.72,3.05-.08,.31-.17,.67-.17,1.01v2.32Z"/><path class="cls-2" d="M120.2,74.4c0,6.19-2.3,9.6-6.33,9.6-3.56,0-5.96-3.33-6.02-9.35,0-6.1,2.63-9.46,6.33-9.46s6.02,3.42,6.02,9.21Zm-9.88,.28c0,4.73,1.46,7.42,3.7,7.42,2.52,0,3.72-2.94,3.72-7.59s-1.15-7.42-3.7-7.42c-2.16,0-3.72,2.63-3.72,7.59Z"/></g><path class="cls-2" d="M555.4,78.61l-1.68,5.09h-2.16l5.5-16.18h2.52l5.52,16.18h-2.23l-1.73-5.09h-5.74Zm5.3-1.63l-1.58-4.66c-.36-1.06-.6-2.02-.84-2.95h-.05c-.24,.96-.5,1.94-.82,2.93l-1.58,4.68h4.87Z"/><rect class="cls-3" x="158.48" y="121.69" width="800" height="48" rx="8.01" ry="8.01"/><g><path class="cls-2" d="M53.46,152.15c.73,.48,2.02,.98,3.25,.98,1.79,0,2.63-.9,2.63-2.02,0-1.18-.7-1.82-2.52-2.49-2.44-.87-3.58-2.21-3.58-3.84,0-2.18,1.76-3.98,4.68-3.98,1.37,0,2.58,.39,3.33,.84l-.62,1.79c-.53-.34-1.51-.78-2.77-.78-1.46,0-2.27,.84-2.27,1.85,0,1.12,.81,1.62,2.58,2.3,2.35,.9,3.56,2.07,3.56,4.09,0,2.38-1.85,4.06-5.07,4.06-1.48,0-2.86-.36-3.81-.92l.62-1.88Z"/><path class="cls-2" d="M67.86,137.22v3.89h3.53v1.88h-3.53v7.31c0,1.68,.48,2.63,1.85,2.63,.64,0,1.12-.08,1.43-.17l.11,1.85c-.48,.2-1.23,.34-2.18,.34-1.15,0-2.07-.36-2.66-1.04-.7-.73-.95-1.93-.95-3.53v-7.39h-2.1v-1.88h2.1v-3.25l2.41-.64Z"/><path class="cls-2" d="M75.36,148.34c.06,3.33,2.18,4.7,4.65,4.7,1.76,0,2.83-.31,3.75-.7l.42,1.76c-.87,.39-2.35,.84-4.51,.84-4.17,0-6.66-2.74-6.66-6.83s2.41-7.31,6.36-7.31c4.42,0,5.6,3.89,5.6,6.38,0,.5-.06,.9-.08,1.15h-9.52Zm7.22-1.76c.03-1.57-.64-4-3.42-4-2.49,0-3.58,2.3-3.78,4h7.2Z"/><path class="cls-2" d="M88.02,145.54c0-1.74-.06-3.14-.11-4.42h2.21l.11,2.32h.06c1.01-1.65,2.6-2.63,4.82-2.63,3.28,0,5.74,2.77,5.74,6.89,0,4.87-2.97,7.28-6.16,7.28-1.79,0-3.36-.78-4.17-2.13h-.06v7.36h-2.44v-14.67Zm2.44,3.61c0,.36,.06,.7,.11,1.01,.45,1.71,1.93,2.88,3.7,2.88,2.6,0,4.12-2.13,4.12-5.24,0-2.72-1.43-5.04-4.03-5.04-1.68,0-3.25,1.2-3.72,3.05-.08,.31-.17,.67-.17,1.01v2.32Z"/><path class="cls-2" d="M114.45,138.76h-.06l-3.16,1.71-.48-1.88,3.98-2.13h2.1v18.2h-2.38v-15.9Z"/></g><path class="cls-2" d="M307.45,149.72l-1.68,5.09h-2.16l5.5-16.18h2.52l5.52,16.18h-2.23l-1.73-5.09h-5.74Zm5.3-1.63l-1.58-4.66c-.36-1.06-.6-2.02-.84-2.95h-.05c-.24,.96-.5,1.94-.82,2.93l-1.58,4.68h4.87Z"/><line class="cls-3" x1="461.71" y1="121.69" x2="461.71" y2="169.69"/><path class="cls-2" d="M717.3,138.71c.91-.19,2.35-.34,3.82-.34,2.09,0,3.43,.36,4.44,1.18,.84,.62,1.34,1.58,1.34,2.86,0,1.56-1.03,2.93-2.74,3.55v.05c1.54,.38,3.34,1.66,3.34,4.06,0,1.39-.55,2.45-1.37,3.24-1.13,1.03-2.95,1.51-5.59,1.51-1.44,0-2.54-.1-3.24-.19v-15.91Zm2.09,6.62h1.9c2.21,0,3.5-1.15,3.5-2.71,0-1.9-1.44-2.64-3.55-2.64-.96,0-1.51,.07-1.85,.14v5.21Zm0,7.75c.41,.07,1.01,.1,1.75,.1,2.16,0,4.15-.79,4.15-3.14,0-2.21-1.9-3.12-4.18-3.12h-1.73v6.17Z"/><rect class="cls-3" x="158.48" y="192.66" width="800" height="48" rx="8.01" ry="8.01"/><g><path class="cls-2" d="M53.46,223.11c.73,.48,2.02,.98,3.25,.98,1.79,0,2.63-.9,2.63-2.02,0-1.18-.7-1.82-2.52-2.49-2.44-.87-3.58-2.21-3.58-3.84,0-2.18,1.76-3.98,4.68-3.98,1.37,0,2.58,.39,3.33,.84l-.62,1.79c-.53-.34-1.51-.78-2.77-.78-1.46,0-2.27,.84-2.27,1.85,0,1.12,.81,1.62,2.58,2.3,2.35,.9,3.56,2.07,3.56,4.09,0,2.38-1.85,4.06-5.07,4.06-1.48,0-2.86-.36-3.81-.92l.62-1.88Z"/><path class="cls-2" d="M67.86,208.19v3.89h3.53v1.88h-3.53v7.31c0,1.68,.48,2.63,1.85,2.63,.64,0,1.12-.08,1.43-.17l.11,1.85c-.48,.2-1.23,.34-2.18,.34-1.15,0-2.07-.36-2.66-1.04-.7-.73-.95-1.93-.95-3.53v-7.39h-2.1v-1.88h2.1v-3.25l2.41-.64Z"/><path class="cls-2" d="M75.36,219.31c.06,3.33,2.18,4.7,4.65,4.7,1.76,0,2.83-.31,3.75-.7l.42,1.76c-.87,.39-2.35,.84-4.51,.84-4.17,0-6.66-2.74-6.66-6.83s2.41-7.31,6.36-7.31c4.42,0,5.6,3.89,5.6,6.38,0,.5-.06,.9-.08,1.15h-9.52Zm7.22-1.76c.03-1.57-.64-4-3.42-4-2.49,0-3.58,2.3-3.78,4h7.2Z"/><path class="cls-2" d="M88.02,216.51c0-1.74-.06-3.14-.11-4.42h2.21l.11,2.32h.06c1.01-1.65,2.6-2.63,4.82-2.63,3.28,0,5.74,2.77,5.74,6.89,0,4.87-2.97,7.28-6.16,7.28-1.79,0-3.36-.78-4.17-2.13h-.06v7.36h-2.44v-14.67Zm2.44,3.61c0,.36,.06,.7,.11,1.01,.45,1.71,1.93,2.88,3.7,2.88,2.6,0,4.12-2.13,4.12-5.24,0-2.72-1.43-5.04-4.03-5.04-1.68,0-3.25,1.2-3.72,3.05-.08,.31-.17,.67-.17,1.01v2.32Z"/><path class="cls-2" d="M109.1,225.63v-1.51l1.93-1.88c4.65-4.42,6.75-6.78,6.78-9.52,0-1.85-.9-3.56-3.61-3.56-1.65,0-3.02,.84-3.86,1.54l-.78-1.74c1.26-1.06,3.05-1.85,5.15-1.85,3.92,0,5.57,2.69,5.57,5.29,0,3.36-2.44,6.08-6.27,9.77l-1.46,1.34v.06h8.18v2.04h-11.62Z"/></g><path class="cls-2" d="M445.58,220.69l-1.68,5.09h-2.16l5.5-16.18h2.52l5.52,16.18h-2.23l-1.73-5.09h-5.74Zm5.3-1.63l-1.58-4.66c-.36-1.06-.6-2.02-.84-2.95h-.05c-.24,.96-.5,1.94-.82,2.93l-1.58,4.68h4.87Z"/><line class="cls-3" x1="461.71" y1="192.66" x2="461.71" y2="240.66"/><path class="cls-2" d="M717.3,209.67c.91-.19,2.35-.34,3.82-.34,2.09,0,3.43,.36,4.44,1.18,.84,.62,1.34,1.58,1.34,2.86,0,1.56-1.03,2.93-2.74,3.55v.05c1.54,.38,3.34,1.66,3.34,4.06,0,1.39-.55,2.45-1.37,3.24-1.13,1.03-2.95,1.51-5.59,1.51-1.44,0-2.54-.1-3.24-.19v-15.91Zm2.09,6.62h1.9c2.21,0,3.5-1.15,3.5-2.71,0-1.9-1.44-2.64-3.55-2.64-.96,0-1.51,.07-1.85,.14v5.21Zm0,7.75c.41,.07,1.01,.1,1.75,.1,2.16,0,4.15-.79,4.15-3.14,0-2.21-1.9-3.12-4.18-3.12h-1.73v6.17Z"/><line class="cls-3" x1="435.58" y1="192.66" x2="435.58" y2="240.66"/><path class="cls-2" d="M428.14,225.25c-.77,.38-2.3,.77-4.27,.77-4.56,0-7.99-2.88-7.99-8.19s3.43-8.5,8.45-8.5c2.02,0,3.29,.43,3.84,.72l-.5,1.7c-.79-.38-1.92-.67-3.26-.67-3.79,0-6.31,2.42-6.31,6.67,0,3.96,2.28,6.5,6.22,6.5,1.27,0,2.57-.26,3.41-.67l.43,1.66Z"/><line class="cls-3" x1="409.44" y1="192.66" x2="409.44" y2="240.66"/><path class="cls-2" d="M281.76,220.55l-1.68,5.09h-2.16l5.5-16.18h2.52l5.52,16.18h-2.23l-1.73-5.09h-5.74Zm5.3-1.63l-1.58-4.66c-.36-1.06-.6-2.02-.84-2.95h-.05c-.24,.96-.5,1.94-.82,2.93l-1.58,4.68h4.87Z"/><rect class="cls-3" x="158.48" y="263.62" width="800" height="48" rx="8.01" ry="8.01"/><g><path class="cls-2" d="M53.46,294.08c.73,.48,2.02,.98,3.25,.98,1.79,0,2.63-.9,2.63-2.02,0-1.18-.7-1.82-2.52-2.49-2.44-.87-3.58-2.21-3.58-3.84,0-2.18,1.76-3.98,4.68-3.98,1.37,0,2.58,.39,3.33,.84l-.62,1.79c-.53-.34-1.51-.78-2.77-.78-1.46,0-2.27,.84-2.27,1.85,0,1.12,.81,1.62,2.58,2.3,2.35,.9,3.56,2.07,3.56,4.09,0,2.38-1.85,4.06-5.07,4.06-1.48,0-2.86-.36-3.81-.92l.62-1.88Z"/><path class="cls-2" d="M67.86,279.16v3.89h3.53v1.88h-3.53v7.31c0,1.68,.48,2.63,1.85,2.63,.64,0,1.12-.08,1.43-.17l.11,1.85c-.48,.2-1.23,.34-2.18,.34-1.15,0-2.07-.36-2.66-1.04-.7-.73-.95-1.93-.95-3.53v-7.39h-2.1v-1.88h2.1v-3.25l2.41-.64Z"/><path class="cls-2" d="M75.36,290.27c.06,3.33,2.18,4.7,4.65,4.7,1.76,0,2.83-.31,3.75-.7l.42,1.76c-.87,.39-2.35,.84-4.51,.84-4.17,0-6.66-2.74-6.66-6.83s2.41-7.31,6.36-7.31c4.42,0,5.6,3.89,5.6,6.38,0,.5-.06,.9-.08,1.15h-9.52Zm7.22-1.76c.03-1.57-.64-4-3.42-4-2.49,0-3.58,2.3-3.78,4h7.2Z"/><path class="cls-2" d="M88.02,287.47c0-1.74-.06-3.14-.11-4.42h2.21l.11,2.32h.06c1.01-1.65,2.6-2.63,4.82-2.63,3.28,0,5.74,2.77,5.74,6.89,0,4.87-2.97,7.28-6.16,7.28-1.79,0-3.36-.78-4.17-2.13h-.06v7.36h-2.44v-14.67Zm2.44,3.61c0,.36,.06,.7,.11,1.01,.45,1.71,1.93,2.88,3.7,2.88,2.6,0,4.12-2.13,4.12-5.24,0-2.72-1.43-5.04-4.03-5.04-1.68,0-3.25,1.2-3.72,3.05-.08,.31-.17,.67-.17,1.01v2.32Z"/><path class="cls-2" d="M109.69,293.77c.7,.45,2.32,1.15,4.03,1.15,3.16,0,4.14-2.02,4.12-3.53-.03-2.55-2.32-3.64-4.7-3.64h-1.37v-1.85h1.37c1.79,0,4.06-.92,4.06-3.08,0-1.46-.92-2.74-3.19-2.74-1.46,0-2.86,.64-3.64,1.2l-.64-1.79c.95-.7,2.8-1.4,4.76-1.4,3.58,0,5.21,2.13,5.21,4.34,0,1.88-1.12,3.47-3.36,4.28v.06c2.24,.45,4.06,2.13,4.06,4.68,0,2.91-2.27,5.46-6.64,5.46-2.04,0-3.84-.64-4.73-1.23l.67-1.9Z"/></g><path class="cls-2" d="M445.58,291.66l-1.68,5.09h-2.16l5.5-16.18h2.52l5.52,16.18h-2.23l-1.73-5.09h-5.74Zm5.3-1.63l-1.58-4.66c-.36-1.06-.6-2.02-.84-2.95h-.05c-.24,.96-.5,1.94-.82,2.93l-1.58,4.68h4.87Z"/><line class="cls-3" x1="461.71" y1="263.62" x2="461.71" y2="311.62"/><path class="cls-2" d="M717.3,280.64c.91-.19,2.35-.34,3.82-.34,2.09,0,3.43,.36,4.44,1.18,.84,.62,1.34,1.58,1.34,2.86,0,1.56-1.03,2.93-2.74,3.55v.05c1.54,.38,3.34,1.66,3.34,4.06,0,1.39-.55,2.45-1.37,3.24-1.13,1.03-2.95,1.51-5.59,1.51-1.44,0-2.54-.1-3.24-.19v-15.91Zm2.09,6.62h1.9c2.21,0,3.5-1.15,3.5-2.71,0-1.9-1.44-2.64-3.55-2.64-.96,0-1.51,.07-1.85,.14v5.21Zm0,7.75c.41,.07,1.01,.1,1.75,.1,2.16,0,4.15-.79,4.15-3.14,0-2.21-1.9-3.12-4.18-3.12h-1.73v6.17Z"/><line class="cls-3" x1="435.58" y1="263.62" x2="435.58" y2="311.62"/><path class="cls-2" d="M428.14,296.22c-.77,.38-2.3,.77-4.27,.77-4.56,0-7.99-2.88-7.99-8.19s3.43-8.5,8.45-8.5c2.02,0,3.29,.43,3.84,.72l-.5,1.7c-.79-.38-1.92-.67-3.26-.67-3.79,0-6.31,2.42-6.31,6.67,0,3.96,2.28,6.5,6.22,6.5,1.27,0,2.57-.26,3.41-.67l.43,1.66Z"/><line class="cls-3" x1="409.44" y1="263.62" x2="409.44" y2="311.62"/><path class="cls-2" d="M393.32,291.66l-1.68,5.09h-2.16l5.5-16.18h2.52l5.52,16.18h-2.23l-1.73-5.09h-5.74Zm5.3-1.63l-1.58-4.66c-.36-1.06-.6-2.02-.84-2.95h-.05c-.24,.96-.5,1.94-.82,2.93l-1.58,4.68h4.87Z"/><line class="cls-3" x1="409.44" y1="263.62" x2="409.44" y2="311.62"/><line class="cls-3" x1="383.31" y1="263.62" x2="383.31" y2="311.62"/><path class="cls-2" d="M267.67,291.66l-1.68,5.09h-2.16l5.5-16.18h2.52l5.52,16.18h-2.23l-1.73-5.09h-5.74Zm5.3-1.63l-1.58-4.66c-.36-1.06-.6-2.02-.84-2.95h-.05c-.24,.96-.5,1.94-.82,2.93l-1.58,4.68h4.87Z"/><line class="cls-3" x1="283.8" y1="263.62" x2="283.8" y2="311.62"/><line class="cls-3" x1="257.66" y1="263.62" x2="257.66" y2="311.62"/><path class="cls-2" d="M326.9,280.64c1.27-.19,2.78-.34,4.44-.34,3,0,5.14,.7,6.55,2.02,1.44,1.32,2.28,3.19,2.28,5.81s-.82,4.8-2.33,6.29c-1.51,1.51-4.01,2.33-7.15,2.33-1.49,0-2.74-.07-3.79-.19v-15.91Zm2.09,14.31c.53,.1,1.3,.12,2.11,.12,4.46,0,6.89-2.5,6.89-6.87,.02-3.82-2.14-6.24-6.55-6.24-1.08,0-1.9,.1-2.45,.22v12.77Z"/><path class="cls-2" d="M202.81,281.02c1.27-.19,2.78-.34,4.44-.34,3,0,5.14,.7,6.55,2.02,1.44,1.32,2.28,3.19,2.28,5.81s-.82,4.8-2.33,6.29c-1.51,1.51-4.01,2.33-7.15,2.33-1.49,0-2.74-.07-3.79-.19v-15.91Zm2.09,14.31c.53,.1,1.3,.12,2.11,.12,4.46,0,6.89-2.5,6.89-6.86,.02-3.82-2.14-6.24-6.55-6.24-1.08,0-1.9,.1-2.45,.22v12.77Z"/><rect class="cls-3" x="159.14" y="334.77" width="800" height="48" rx="8.01" ry="8.01"/><g><path class="cls-2" d="M54.13,365.23c.73,.48,2.02,.98,3.25,.98,1.79,0,2.63-.9,2.63-2.02,0-1.18-.7-1.82-2.52-2.49-2.44-.87-3.58-2.21-3.58-3.84,0-2.18,1.76-3.98,4.68-3.98,1.37,0,2.58,.39,3.33,.84l-.62,1.79c-.53-.34-1.51-.78-2.77-.78-1.46,0-2.27,.84-2.27,1.85,0,1.12,.81,1.62,2.58,2.3,2.35,.9,3.56,2.07,3.56,4.09,0,2.38-1.85,4.06-5.07,4.06-1.48,0-2.86-.36-3.81-.92l.62-1.88Z"/><path class="cls-2" d="M68.52,350.31v3.89h3.53v1.88h-3.53v7.31c0,1.68,.48,2.63,1.85,2.63,.64,0,1.12-.08,1.43-.17l.11,1.85c-.48,.2-1.23,.34-2.18,.34-1.15,0-2.07-.36-2.66-1.04-.7-.73-.95-1.93-.95-3.53v-7.39h-2.1v-1.88h2.1v-3.25l2.41-.64Z"/><path class="cls-2" d="M76.02,361.42c.06,3.33,2.18,4.7,4.65,4.7,1.76,0,2.83-.31,3.75-.7l.42,1.76c-.87,.39-2.35,.84-4.51,.84-4.17,0-6.66-2.74-6.66-6.83s2.41-7.31,6.36-7.31c4.42,0,5.6,3.89,5.6,6.38,0,.5-.06,.9-.08,1.15h-9.52Zm7.22-1.76c.03-1.57-.64-4-3.42-4-2.49,0-3.58,2.3-3.78,4h7.2Z"/><path class="cls-2" d="M88.68,358.62c0-1.74-.06-3.14-.11-4.42h2.21l.11,2.32h.06c1.01-1.65,2.6-2.63,4.82-2.63,3.28,0,5.74,2.77,5.74,6.89,0,4.87-2.97,7.28-6.16,7.28-1.79,0-3.36-.78-4.17-2.13h-.06v7.36h-2.44v-14.67Zm2.44,3.61c0,.36,.06,.7,.11,1.01,.45,1.71,1.93,2.88,3.7,2.88,2.6,0,4.12-2.13,4.12-5.24,0-2.72-1.43-5.04-4.03-5.04-1.68,0-3.25,1.2-3.72,3.05-.08,.31-.17,.67-.17,1.01v2.32Z"/><path class="cls-2" d="M117.38,367.75v-4.96h-8.46v-1.62l8.12-11.62h2.66v11.31h2.55v1.93h-2.55v4.96h-2.32Zm0-6.89v-6.08c0-.95,.03-1.9,.08-2.86h-.08c-.56,1.06-1.01,1.85-1.51,2.69l-4.45,6.19v.06h5.96Z"/></g><path class="cls-2" d="M453,360.31h-6.29v5.83h7.01v1.75h-9.1v-16.18h8.74v1.75h-6.65v5.11h6.29v1.73Z"/><line class="cls-3" x1="462.37" y1="334.77" x2="462.37" y2="382.77"/><path class="cls-2" d="M717.96,351.79c.91-.19,2.35-.34,3.82-.34,2.09,0,3.43,.36,4.44,1.18,.84,.62,1.34,1.58,1.34,2.86,0,1.56-1.03,2.93-2.74,3.55v.05c1.54,.38,3.34,1.66,3.34,4.06,0,1.39-.55,2.45-1.37,3.24-1.13,1.03-2.95,1.51-5.59,1.51-1.44,0-2.54-.1-3.24-.19v-15.91Zm2.09,6.62h1.9c2.21,0,3.5-1.15,3.5-2.71,0-1.9-1.44-2.64-3.55-2.64-.96,0-1.51,.07-1.85,.14v5.21Zm0,7.75c.41,.07,1.01,.1,1.75,.1,2.16,0,4.15-.79,4.15-3.14,0-2.21-1.9-3.12-4.18-3.12h-1.73v6.17Z"/><line class="cls-3" x1="436.24" y1="334.77" x2="436.24" y2="382.77"/><path class="cls-2" d="M428.8,367.37c-.77,.38-2.3,.77-4.27,.77-4.56,0-7.99-2.88-7.99-8.19s3.43-8.5,8.45-8.5c2.02,0,3.29,.43,3.84,.72l-.5,1.7c-.79-.38-1.92-.67-3.26-.67-3.79,0-6.31,2.42-6.31,6.67,0,3.96,2.28,6.5,6.22,6.5,1.27,0,2.57-.26,3.41-.67l.43,1.66Z"/><line class="cls-3" x1="410.1" y1="334.77" x2="410.1" y2="382.77"/><path class="cls-2" d="M399.74,360.31h-6.29v5.83h7.01v1.75h-9.1v-16.18h8.74v1.75h-6.65v5.11h6.29v1.73Z"/><line class="cls-3" x1="410.1" y1="334.77" x2="410.1" y2="382.77"/><line class="cls-3" x1="383.97" y1="334.77" x2="383.97" y2="382.77"/><path class="cls-2" d="M275.91,360.69h-6.29v5.83h7.01v1.75h-9.1v-16.18h8.74v1.75h-6.65v5.11h6.29v1.73Z"/><line class="cls-3" x1="284.46" y1="334.77" x2="284.46" y2="382.77"/><line class="cls-3" x1="258.32" y1="334.77" x2="258.32" y2="382.77"/><path class="cls-2" d="M327.56,351.79c1.27-.19,2.78-.34,4.44-.34,3,0,5.14,.7,6.55,2.02,1.44,1.32,2.28,3.19,2.28,5.81s-.82,4.8-2.33,6.29c-1.51,1.51-4.01,2.33-7.15,2.33-1.49,0-2.74-.07-3.79-.19v-15.91Zm2.09,14.31c.53,.1,1.3,.12,2.11,.12,4.46,0,6.89-2.5,6.89-6.86,.02-3.82-2.14-6.24-6.55-6.24-1.08,0-1.9,.1-2.45,.22v12.77Z"/><path class="cls-2" d="M203.47,352.17c1.27-.19,2.78-.34,4.44-.34,3,0,5.14,.7,6.55,2.02,1.44,1.32,2.28,3.19,2.28,5.81s-.82,4.8-2.33,6.29c-1.51,1.51-4.01,2.33-7.15,2.33-1.49,0-2.74-.07-3.79-.19v-15.91Zm2.09,14.31c.53,.1,1.3,.12,2.11,.12,4.46,0,6.89-2.5,6.89-6.86,.02-3.82-2.14-6.24-6.55-6.24-1.08,0-1.9,.1-2.45,.22v12.77Z"/></svg>